<?xml version="1.0" encoding="utf-8"?>
<!-- Generator: Adobe Illustrator 19.1.0, SVG Export Plug-In . SVG Version: 6.00 Build 0)  -->
<svg version="1.1" id="Layer_1" xmlns="http://www.w3.org/2000/svg" xmlns:xlink="http://www.w3.org/1999/xlink" x="0px" y="0px"
	 viewBox="-254 388.5 103 16" style="enable-background:new -254 388.5 103 16;" xml:space="preserve">
<style type="text/css">
	.st0{fill:#FFFFFF;}
</style>
<polygon class="st0" points="-226.8,404.3 -216.1,404.3 -216.1,402.4 -224.6,402.4 -224.6,397.2 -216.4,397.2 -216.4,395.3 
	-224.6,395.3 -224.6,390.4 -216.1,390.4 -216.1,388.5 -226.8,388.5 "/>
<polygon class="st0" points="-230.7,395.3 -238.3,395.3 -238.3,388.5 -240.4,388.5 -240.4,404.3 -238.3,404.3 -238.3,397.2 
	-230.7,397.2 -230.7,404.3 -228.6,404.3 -228.6,388.5 -230.7,388.5 "/>
<polygon class="st0" points="-254,390.4 -249,390.4 -249,404.3 -246.8,404.3 -246.8,390.4 -241.7,390.4 -241.7,388.5 -254,388.5 "/>
<path class="st0" d="M-208.1,388.6h-6.6v15.8h6.6c1.1,0,2.1-0.1,3-0.3v-15.2C-206,388.6-207,388.6-208.1,388.6"/>
<path class="st0" d="M-184.2,388.6v14.5c0.1,0.1,0.3,0.2,0.4,0.3v-14.8H-184.2z"/>
<path class="st0" d="M-179.4,400c-1.2,0-1.3-0.3-1.4-0.5c-0.3-0.8-0.2-2.7-0.2-3.5v-7.4h-2.6v15c1.1,0.7,2.5,1,4.2,1
	c0.2,0,0.3,0,0.5,0v-4.5C-179.1,400-179.3,400-179.4,400"/>
<path class="st0" d="M-178.7,399.9v4.6c0.1,0,0.2,0,0.2,0v-4.6C-178.5,399.9-178.6,399.9-178.7,399.9"/>
<path class="st0" d="M-177.8,388.6v7.4c0,0.9,0,1.7,0,2.3c0,0.7,0,1.1-0.3,1.4v4.8c1.1-0.1,2-0.4,2.8-0.9v-15H-177.8z"/>
<path class="st0" d="M-175,388.6v14.8c1-0.7,1.7-1.7,2-3.2v-11.6H-175z"/>
<path class="st0" d="M-186,388.6v7.9c0,1.4,0,2.2,0,2.9c0.1,1.1,0.4,2,0.8,2.7v-13.5H-186z"/>
<path class="st0" d="M-204.9,388.9V404c1.1-0.3,2-0.9,2.7-1.9v-11.3C-202.8,389.8-203.7,389.2-204.9,388.9"/>
<path class="st0" d="M-201,396.5c0-2.3-0.1-3.8-0.7-5v10C-201.1,400.3-201,398.8-201,396.5"/>
<rect x="-200.1" y="388.6" class="st0" width="0.4" height="15.8"/>
<rect x="-199.4" y="388.6" class="st0" width="0.4" height="15.8"/>
<rect x="-198.2" y="388.6" class="st0" width="1.5" height="15.8"/>
<path class="st0" d="M-193.7,388.6h-1.7v15.8h0.3V399h1.2c0.4,0,0.8,0,1.3,0v-10.4C-193,388.6-193.4,388.6-193.7,388.6"/>
<path class="st0" d="M-189.9,388.9v15.4h0.4V389C-189.7,389-189.8,389-189.9,388.9"/>
<path class="st0" d="M-187.7,396.5c0.2-0.2,0.3-0.5,0.4-0.8v-4.4c-0.3-0.9-0.9-1.5-1.5-1.9v14.9h1.5v-7.1
	C-187.4,397-187.5,396.7-187.7,396.5"/>
<path class="st0" d="M-192.3,388.6V399c0.2,0,0.3,0,0.5,0.1c0.1,0.2,0.1,0.7,0.1,0.9v4.4h1.5v-15.5
	C-190.9,388.7-191.6,388.6-192.3,388.6"/>
<rect x="-195.9" y="388.6" class="st0" width="0.3" height="15.8"/>
<rect x="-168.4" y="388.6" class="st0" width="0.5" height="15.8"/>
<polygon class="st0" points="-161.2,388.6 -163.4,396.4 -163.4,404.3 -161.3,404.3 -159.9,399.6 -159.9,404.3 -159.4,404.3 
	-159.4,388.6 "/>
<rect x="-155.8" y="388.6" class="st0" width="0.6" height="15.8"/>
<rect x="-158.6" y="388.6" class="st0" width="1.3" height="15.8"/>
<polygon class="st0" points="-165.8,388.6 -167.6,388.6 -167.6,404.3 -167.1,404.3 -167.1,399.6 -165.8,404.3 -163.8,404.3 
	-163.8,395.5 "/>
<rect x="-171.8" y="388.6" class="st0" width="2.7" height="15.8"/>
<g>
	<path class="st0" d="M-151,389.9c0,0.8-0.6,1.4-1.4,1.4c-0.8,0-1.4-0.6-1.4-1.4c0-0.8,0.6-1.4,1.4-1.4
		C-151.6,388.5-151,389.1-151,389.9 M-153.6,389.9c0,0.7,0.5,1.2,1.2,1.2c0.7,0,1.2-0.5,1.2-1.2c0-0.7-0.5-1.2-1.2-1.2
		C-153.1,388.7-153.6,389.2-153.6,389.9 M-152.7,390.7h-0.2v-1.6h0.6c0.4,0,0.5,0.2,0.5,0.4c0,0.3-0.2,0.4-0.4,0.4l0.5,0.7h-0.2
		l-0.5-0.7h-0.3L-152.7,390.7L-152.7,390.7z M-152.5,389.8c0.2,0,0.5,0,0.5-0.3c0-0.2-0.2-0.3-0.4-0.3h-0.4v0.6H-152.5z"/>
</g>
</svg>
